<svg xmlns="http://www.w3.org/2000/svg" xml:space="preserve" width="474.667" height="212" viewBox="0 0 474.667 212"><defs><clipPath id="a" clipPathUnits="userSpaceOnUse"><path d="M0 159h356V0H0Z"/></clipPath></defs><path d="M0 0h20.472l.668-19.745h.258L29.906 0h20.42l-7.325-36.09H30.628L36.4-7.731h-.311L23.203-36.09H11.708L10.569-7.731h-.362L4.435-36.09H-7.321Z" style="fill:#176fc1;fill-opacity:1;fill-rule:nonzero;stroke:none" transform="matrix(1.33333 0 0 -1.33333 140.836 83.454)"/><g clip-path="url(#a)" transform="matrix(1.33333 0 0 -1.33333 0 212)"><path d="M0 0h.825c3.867 0 6.033 4.226 6.033 7.368 0 2.321-1.339 4.075-3.764 4.075h-.773Zm-10.261 11.443h-.771c-3.662 0-6.135-3.866-6.135-7.27 0-2.11 1.289-4.173 3.765-4.173h.823zm-5.771-25.469 1.135 5.781h-2.477c-9.488 0-12.943 5.354-12.943 10.717 0 7.941 6.395 17.221 18.976 17.221h2.166l1.08 5.412H5.729l-1.083-5.412H6.81c5.05 0 13.195-1.185 13.195-10.776 0-8.402-6.028-17.162-18.354-17.162h-2.733l-1.134-5.781z" style="fill:#176fc1;fill-opacity:1;fill-rule:nonzero;stroke:none" transform="translate(184.299 73.727)"/><path d="m0 0-2.166-10.672h-12.17l-5.152-25.418h-13.818l5.154 25.418h-12.17L-38.156 0Z" style="fill:#176fc1;fill-opacity:1;fill-rule:nonzero;stroke:none" transform="translate(245.464 96.41)"/><path d="m0 0-4.178-20.62h.207L9.335 0h16.137l-7.32-36.09H4.332l4.123 20.211h-.206L-4.999-36.09h-16.138L-13.819 0Z" style="fill:#176fc1;fill-opacity:1;fill-rule:nonzero;stroke:none" transform="translate(262.375 96.41)"/><path d="m0 0 1.963 10.23 19.335-5.816Z" style="fill:#176fc1;fill-opacity:1;fill-rule:nonzero;stroke:none" transform="translate(298.574 46.719)"/><path d="M0 0h-199.764c-3.69 0-5.295-4.093-6.844-8.052-.542-1.38-1.392-3.548-2.043-4.442-1.179 1.176-2.045 6.795-2.383 9.01l-.188 1.223c-1.189 7.601-2.259 15.625-3.296 23.381-4.529 33.916-6.677 45.791-12.981 45.91-7.906.146-10.716-13.858-19.054-55.423l-1.092-5.431C-248.881 0-251.698 0-252.9 0h-3.753l-.931-5.348h4.684c3.136 0 8.673 1.362 10.501 10.473l1.088 5.432c5.143 25.625 10.002 49.797 13.434 51.008 2.982-3.176 5.906-25.045 8.056-41.152 1.043-7.785 2.116-15.836 3.318-23.5l.182-1.201c.934-6.133 2.094-13.764 7.848-13.764 3.69 0 5.295 4.093 6.845 8.051.592 1.513 1.557 3.964 2.225 4.653H-.928z" style="fill:#176fc1;fill-opacity:1;fill-rule:nonzero;stroke:none" transform="translate(293.992 54.617)"/><path d="m0 0 .563-3.385.015-.009L2.232 0h1.731l-.865-5.301H1.915l.681 4.127H2.58L.617-5.301h-.795L-.82-1.183l-.016.009-.672-4.127h-.972L-1.615 0Z" style="fill:#176fc1;fill-opacity:1;fill-rule:nonzero;stroke:none" transform="translate(98.798 44.073)"/><path d="M0 0c.17-.302.41-.427.742-.427.293 0 .549.095.781.396.363.464.54 1.414.54 2.002 0 .216-.031.553-.17.787a.83.83 0 0 1-.741.401c-.333 0-.587-.148-.781-.394C.008 2.302-.17 1.351-.17.758-.17.524-.138.245 0 0m2.597 3.661c.347-.286.749-.864.749-1.832 0-.795-.285-1.69-.664-2.2-.256-.341-.881-.996-2.064-.996-.555 0-1.057.145-1.483.586-.434.449-.587 1.005-.587 1.662 0 .711.146 1.729.903 2.487.549.547 1.098.72 1.778.72.394 0 .904-.039 1.368-.427" style="fill:#176fc1;fill-opacity:1;fill-rule:nonzero;stroke:none" transform="translate(104.507 40.063)"/><path d="M0 0c0 .187-.037.502-.178.742-.154.272-.37.395-.702.395-.487 0-.75-.332-.927-.695-.256-.526-.379-1.276-.379-1.778 0-.248.039-.602.248-.843a.79.79 0 0 1 .602-.27c.402 0 .912.24 1.098 1.052l1.104-.202a2.8 2.8 0 0 0-.409-.834c-.503-.704-1.098-.957-1.832-.957-.85 0-1.351.431-1.607.755-.309.395-.487.936-.487 1.514 0 .781.264 1.654.735 2.25.448.565 1.074.936 1.939.936.742 0 1.166-.294 1.383-.518.34-.349.517-.928.533-1.416z" style="fill:#176fc1;fill-opacity:1;fill-rule:nonzero;stroke:none" transform="translate(111.847 42.086)"/><path d="m0 0-.347-2.118h.355c.394 0 .641.071 1.074.958.232.479.409.804.586.973A.6.6 0 0 0 2.086 0h.997c-.155-.108-.286-.247-.579-.735-.302-.502-.279-.502-.541-.933-.248-.411-.402-.543-.464-.597a1.05 1.05 0 0 0-.448-.2v-.031c.309-.055.51-.286.603-.433.132-.2.185-.401.231-.595.071-.308.101-.517.147-.726.125-.604.263-.866.394-1.051H1.284c-.11.008-.264.07-.371.486-.063.248-.102.541-.164.951-.046.332-.1.556-.231.679-.116.108-.332.163-.533.163h-.48l-.37-2.279h-1.236L-1.236 0z" style="fill:#176fc1;fill-opacity:1;fill-rule:nonzero;stroke:none" transform="translate(115.286 44.073)"/><path d="M0 0c.17-.302.408-.427.741-.427.294 0 .548.095.78.396.364.464.541 1.414.541 2.002 0 .216-.031.553-.17.787a.83.83 0 0 1-.742.401.95.95 0 0 1-.779-.394C.008 2.302-.171 1.351-.171.758-.171.524-.141.245 0 0m2.596 3.661c.347-.286.75-.864.75-1.832 0-.795-.288-1.69-.666-2.2-.255-.341-.88-.996-2.063-.996-.557 0-1.059.145-1.483.586-.433.449-.587 1.005-.587 1.662 0 .711.146 1.729.904 2.487.549.547 1.096.72 1.777.72.394 0 .903-.039 1.368-.427" style="fill:#176fc1;fill-opacity:1;fill-rule:nonzero;stroke:none" transform="translate(119.9 40.063)"/><path d="M0 0h.92c.193 0 .463.016.672.194A.55.55 0 0 1 1.8.641c0 .402-.34.548-.703.548H.194Zm-.371-2.24H.633c.256 0 .495 0 .711.201a.67.67 0 0 1 .225.494.6.6 0 0 1-.24.502c-.186.131-.417.139-.58.139h-.896Zm1.754 4.358c.363 0 .719-.063 1.004-.217.287-.162.627-.479.627-1.074 0-.448-.201-.741-.379-.911a1.45 1.45 0 0 0-.695-.363v-.018a1.2 1.2 0 0 0 .494-.269c.263-.238.371-.588.371-.912 0-.363-.178-.787-.433-1.051-.409-.424-.957-.486-1.467-.486h-2.627l.873 5.301z" style="fill:#176fc1;fill-opacity:1;fill-rule:nonzero;stroke:none" transform="translate(125.331 41.955)"/><path d="M0 0c0 .187-.04.502-.178.742-.154.272-.371.395-.703.395-.487 0-.749-.332-.928-.695-.254-.526-.378-1.276-.378-1.778 0-.248.038-.602.247-.843a.8.8 0 0 1 .604-.27c.401 0 .911.24 1.095 1.052l1.106-.202a2.8 2.8 0 0 0-.41-.834c-.502-.704-1.096-.957-1.831-.957-.849 0-1.352.431-1.607.755-.308.395-.486.936-.486 1.514 0 .781.261 1.654.734 2.25.448.565 1.073.936 1.939.936.741 0 1.167-.294 1.383-.518.34-.349.518-.928.534-1.416z" style="fill:#176fc1;fill-opacity:1;fill-rule:nonzero;stroke:none" transform="translate(132.324 42.086)"/><path d="m0 0-.348-2.118h.355c.394 0 .642.071 1.074.958.233.479.41.804.588.973A.6.6 0 0 0 2.087 0h.996c-.154-.108-.285-.247-.58-.735-.301-.502-.277-.502-.541-.933-.246-.411-.401-.543-.463-.597a1.05 1.05 0 0 0-.448-.2v-.031c.309-.055.51-.286.602-.433.132-.2.186-.401.233-.595.069-.308.099-.517.146-.726.123-.604.263-.866.395-1.051H1.282c-.107.008-.262.07-.37.486-.062.248-.1.541-.162.951-.047.332-.101.556-.231.679-.118.108-.333.163-.534.163h-.48l-.371-2.279h-1.236L-1.236 0z" style="fill:#176fc1;fill-opacity:1;fill-rule:nonzero;stroke:none" transform="translate(135.762 44.073)"/><path d="m0 0-.464-2.829a6 6 0 0 0-.115-.486c.169.277.215.356.261.408L1.7-.379 1.769 0h1.237l-.873-5.301H.896l.472 2.875c.023.161.061.34.1.486a4 4 0 0 0-.254-.402L-.804-4.876l-.069-.425H-2.11L-1.237 0z" style="fill:#176fc1;fill-opacity:1;fill-rule:nonzero;stroke:none" transform="translate(140.862 44.073)"/><path d="M0 0a.36.36 0 0 1 .107-.302C.178-.372.301-.44.502-.44a.6.6 0 0 1 .401.138.46.46 0 0 1 .162.302h.95a1.18 1.18 0 0 0-.517-.757C1.205-.95.803-1.041.431-1.041c-.347 0-.787.075-1.043.293A.94.94 0 0 0-.936 0Zm-.495-1.328-.464-2.829a6 6 0 0 0-.115-.487c.17.278.216.357.261.409l2.018 2.528.069.379H2.51l-.873-5.301H.401l.472 2.875c.023.161.06.34.099.485a4 4 0 0 0-.254-.401l-2.017-2.534-.069-.425h-1.238l.875 5.301z" style="fill:#176fc1;fill-opacity:1;fill-rule:nonzero;stroke:none" transform="translate(146.65 45.401)"/><path d="M0 0c.496.014.85.147 1.113.519.178.253.279.639.279.964 0 .495-.209.757-.394.875a1.1 1.1 0 0 1-.588.136Zm-.748 2.488a1.5 1.5 0 0 1-.952-.385c-.285-.273-.432-.689-.432-1.068s.147-.611.27-.742a.91.91 0 0 1 .711-.285zM.696 3.971l-.101-.618c.565.016 1.26-.17 1.647-.679.277-.362.324-.78.324-1.168 0-.277-.039-1.158-.78-1.791C1.353-.656.718-.873-.1-.856l-.108-.659h-1.237l.109.666c-.742-.007-1.205.23-1.485.509-.254.254-.486.678-.486 1.328 0 .574.193 1.391 1.09 1.949.448.278.912.416 1.568.409l.109.625z" style="fill:#176fc1;fill-opacity:1;fill-rule:nonzero;stroke:none" transform="translate(154.615 40.256)"/><path d="m0 0-.464-2.829a6 6 0 0 0-.116-.486c.17.277.216.356.263.408L1.699-.379l.07.379h1.237l-.873-5.301H.896l.471 2.875c.023.161.062.34.101.486a4 4 0 0 0-.256-.402L-.805-4.876l-.068-.425H-2.11L-1.237 0z" style="fill:#176fc1;fill-opacity:1;fill-rule:nonzero;stroke:none" transform="translate(159.654 44.073)"/><path d="M0 0c.084.34.285.812.788 1.146.332.216.804.378 1.476.378.572 0 .927-.116 1.167-.256.479-.287.61-.703.61-1.043 0-.402-.162-.711-.387-.936a1.5 1.5 0 0 0-.656-.379v-.014c.201-.046.433-.156.588-.325.115-.123.27-.356.27-.748 0-.487-.225-1.059-.804-1.415-.48-.294-1.059-.339-1.538-.339-.549 0-1.113.077-1.545.541a1.8 1.8 0 0 0-.441.965l1.059.177c.062-.24.192-.394.247-.455.232-.248.494-.287.75-.287.463 0 .695.17.779.24a.7.7 0 0 1 .256.533c0 .184-.07.364-.185.463-.194.17-.526.17-.696.17h-.587l.139.905h.634c.232 0 .533.068.695.193a.65.65 0 0 1 .247.533.5.5 0 0 1-.2.41c-.155.115-.325.139-.502.139-.263 0-.503-.039-.75-.225a1.1 1.1 0 0 1-.394-.556z" style="fill:#176fc1;fill-opacity:1;fill-rule:nonzero;stroke:none" transform="translate(163.177 42.627)"/><path d="m0 0-.464-2.829a5 5 0 0 0-.116-.486c.17.277.217.356.263.408L1.699-.379 1.77 0h1.234l-.871-5.301H.897l.47 2.875c.024.161.061.34.1.486a4 4 0 0 0-.254-.402L-.805-4.876l-.068-.425H-2.11L-1.236 0z" style="fill:#176fc1;fill-opacity:1;fill-rule:nonzero;stroke:none" transform="translate(169.714 44.073)"/><path d="m0 0-.345-2.118h.353c.395 0 .643.071 1.076.958.231.479.408.804.586.973A.6.6 0 0 0 2.088 0h.996c-.154-.108-.285-.247-.578-.735-.303-.502-.279-.502-.543-.933-.246-.411-.4-.543-.463-.597a1.05 1.05 0 0 0-.447-.2v-.031c.308-.055.51-.286.601-.433.131-.2.186-.401.233-.595.068-.308.099-.517.146-.726.123-.604.264-.866.395-1.051H1.286c-.11.008-.264.07-.373.486-.061.248-.1.541-.163.951-.045.332-.099.556-.23.679-.117.108-.332.163-.533.163h-.481l-.369-2.279h-1.236L-1.234 0z" style="fill:#176fc1;fill-opacity:1;fill-rule:nonzero;stroke:none" transform="translate(174.997 44.073)"/><path d="M0 0c.171-.302.408-.427.74-.427.293 0 .55.095.781.396.365.464.542 1.414.542 2.002 0 .216-.032.553-.172.787-.108.184-.338.401-.741.401a.95.95 0 0 1-.778-.394C.009 2.302-.171 1.351-.171.758-.171.524-.14.245 0 0m2.597 3.661c.346-.286.75-.864.75-1.832 0-.795-.287-1.69-.666-2.2-.256-.341-.881-.996-2.064-.996-.556 0-1.057.145-1.483.586-.432.449-.586 1.005-.586 1.662 0 .711.146 1.729.901 2.487.551.547 1.099.72 1.78.72.393 0 .903-.039 1.368-.427" style="fill:#176fc1;fill-opacity:1;fill-rule:nonzero;stroke:none" transform="translate(179.611 40.063)"/><path d="M0 0h-1.832l-.146-.928h1.832z" style="fill:#176fc1;fill-opacity:1;fill-rule:nonzero;stroke:none" transform="translate(185.012 41.307)"/><path d="m0 0-.163-.974h-1.259l-.711-4.327H-3.37l.711 4.327h-1.259l.162.974Z" style="fill:#176fc1;fill-opacity:1;fill-rule:nonzero;stroke:none" transform="translate(189.247 44.073)"/><path d="M0 0h-2.496l-.187-1.145h2l-.161-.904h-1.994l-.2-1.289h2.517l-.162-.989h-3.761l.873 5.301H.17Z" style="fill:#176fc1;fill-opacity:1;fill-rule:nonzero;stroke:none" transform="translate(193.327 43.1)"/><path d="m0 0 1.298-2.843H-.131l-.828 1.9-1.43-1.9h-1.182l2.156 2.75-1.175 2.551h1.429L-.473.811.765 2.458h1.144z" style="fill:#176fc1;fill-opacity:1;fill-rule:nonzero;stroke:none" transform="translate(196.417 41.615)"/><path d="m0 0-.342-2.071h1.748L1.737 0h1.239l-.868-5.301H.873l.364 2.256H-.504l-.362-2.256h-1.236L-1.235 0Z" style="fill:#176fc1;fill-opacity:1;fill-rule:nonzero;stroke:none" transform="translate(200.35 44.073)"/><path d="m0 0-.465-2.829a5 5 0 0 0-.115-.486c.17.277.217.356.261.408L1.698-.379 1.767 0h1.239l-.875-5.301H.896l.471 2.875c.023.161.063.34.1.486a4 4 0 0 0-.254-.402L-.806-4.876l-.069-.425H-2.11L-1.236 0z" style="fill:#176fc1;fill-opacity:1;fill-rule:nonzero;stroke:none" transform="translate(205.613 44.073)"/><path d="m0 0-.24-1.438a1.5 1.5 0 0 1-.032-.277c0-.086.007-.218.093-.317.14-.17.396-.188.625-.188.241 0 .574.032.842.063L1.651 0H2.89l-.874-5.301H.78l.355 2.193c-.301-.03-.726-.053-1.074-.053-.326 0-.926.023-1.25.316-.156.139-.318.403-.318.858 0 .194.029.386.062.588L-1.205 0z" style="fill:#176fc1;fill-opacity:1;fill-rule:nonzero;stroke:none" transform="translate(210.69 44.073)"/><path d="M0 0h-2.496l-.187-1.145h2.002l-.161-.904h-1.994l-.2-1.289h2.517l-.162-.989h-3.762l.874 5.301H.17Z" style="fill:#176fc1;fill-opacity:1;fill-rule:nonzero;stroke:none" transform="translate(218.2 43.1)"/><path d="M0 0c0 .187-.039.502-.177.742-.155.272-.372.395-.703.395-.487 0-.749-.332-.928-.695-.254-.526-.379-1.276-.379-1.778 0-.248.04-.602.249-.843a.79.79 0 0 1 .602-.27c.403 0 .91.24 1.096 1.052l1.106-.202a2.8 2.8 0 0 0-.41-.834C-.045-3.137-.64-3.39-1.375-3.39c-.849 0-1.351.431-1.606.755-.31.395-.487.936-.487 1.514 0 .781.261 1.654.735 2.25.446.565 1.071.936 1.936.936.743 0 1.168-.294 1.385-.518.34-.349.518-.928.533-1.416z" style="fill:#176fc1;fill-opacity:1;fill-rule:nonzero;stroke:none" transform="translate(221.923 42.086)"/><path d="m0 0-.347-2.118H.01c.391 0 .639.071 1.072.958.231.479.409.804.588.973A.59.59 0 0 0 2.088 0h.996c-.155-.108-.287-.247-.58-.735-.301-.502-.278-.502-.539-.933-.248-.411-.403-.543-.465-.597a1.05 1.05 0 0 0-.449-.2v-.031c.309-.055.511-.286.602-.433.132-.2.187-.401.234-.595.068-.308.098-.517.145-.726.123-.604.265-.866.396-1.051H1.282c-.106.008-.261.07-.368.486-.065.248-.102.541-.164.951-.045.332-.101.556-.233.679-.116.108-.33.163-.532.163h-.479l-.371-2.279h-1.236L-1.235 0z" style="fill:#176fc1;fill-opacity:1;fill-rule:nonzero;stroke:none" transform="translate(225.361 44.073)"/><path d="m0 0-.465-2.829a5 5 0 0 0-.115-.486c.17.277.217.356.262.408L1.7-.379 1.769 0h1.237l-.875-5.301H.897l.471 2.875c.023.161.062.34.099.486a4 4 0 0 0-.254-.402L-.804-4.876l-.071-.425h-1.234L-1.238 0z" style="fill:#176fc1;fill-opacity:1;fill-rule:nonzero;stroke:none" transform="translate(230.462 44.073)"/><path d="M0 0a.36.36 0 0 1 .107-.302C.177-.372.3-.44.502-.44c.115 0 .269.024.4.138A.45.45 0 0 1 1.064 0h.951a1.18 1.18 0 0 0-.517-.757C1.205-.95.802-1.041.431-1.041c-.348 0-.787.075-1.043.293A.94.94 0 0 0-.936 0zm-.495-1.328-.464-2.829a6 6 0 0 0-.116-.487c.17.278.217.357.262.409l2.018 2.528.068.379h1.238l-.875-5.301H.4l.473 2.875c.021.161.06.34.099.485a4 4 0 0 0-.254-.401l-2.017-2.534-.071-.425h-1.236l.875 5.301z" style="fill:#176fc1;fill-opacity:1;fill-rule:nonzero;stroke:none" transform="translate(236.25 45.401)"/><path d="m0 0-.463-2.829a5 5 0 0 0-.117-.486c.17.277.218.356.265.408L1.699-.379 1.771 0h1.235l-.872-5.301H.897l.472 2.875c.023.161.062.34.101.486-.064-.107-.194-.332-.257-.402L-.803-4.876l-.07-.425h-1.235L-1.235 0z" style="fill:#176fc1;fill-opacity:1;fill-rule:nonzero;stroke:none" transform="translate(242.847 44.073)"/><path d="m0 0-.339-2.071h1.746L1.739 0h1.237L2.11-5.301H.873l.364 2.256H-.502l-.363-2.256h-1.236L-1.235 0Z" style="fill:#176fc1;fill-opacity:1;fill-rule:nonzero;stroke:none" transform="translate(248.132 44.073)"/><path d="M0 0c0 .187-.038.502-.177.742-.155.272-.371.395-.703.395-.489 0-.75-.332-.928-.695-.256-.526-.379-1.276-.379-1.778 0-.248.039-.602.248-.843a.8.8 0 0 1 .602-.27c.402 0 .912.24 1.097 1.052l1.106-.202a2.8 2.8 0 0 0-.41-.834c-.502-.704-1.098-.957-1.832-.957-.85 0-1.352.431-1.606.755-.311.395-.486.936-.486 1.514 0 .781.262 1.654.732 2.25.449.565 1.074.936 1.94.936.742 0 1.166-.294 1.382-.518.342-.349.518-.928.534-1.416z" style="fill:#176fc1;fill-opacity:1;fill-rule:nonzero;stroke:none" transform="translate(254.917 42.086)"/><path d="m0 0-.162-.974h-1.261l-.711-4.327h-1.235l.711 4.327h-1.26l.161.974Z" style="fill:#176fc1;fill-opacity:1;fill-rule:nonzero;stroke:none" transform="translate(260.357 44.073)"/><path d="m0 0-.465-2.829a5 5 0 0 0-.114-.486c.17.277.217.356.264.408L1.699-.379 1.771 0h1.236l-.873-5.301H.897l.47 2.875c.025.161.064.34.103.486-.064-.107-.196-.332-.256-.402L-.805-4.876l-.067-.425h-1.236L-1.235 0z" style="fill:#176fc1;fill-opacity:1;fill-rule:nonzero;stroke:none" transform="translate(262.103 44.073)"/><path d="m0 0-.164-.974h-1.258l-.711-4.327h-1.235l.711 4.327h-1.261l.162.974Z" style="fill:#176fc1;fill-opacity:1;fill-rule:nonzero;stroke:none" transform="translate(269.39 44.073)"/><path d="m0 0 .75-2.536h.021L2.192 0h1.146L1.11-3.817C.672-4.567.433-4.823.293-4.953c-.371-.333-.75-.424-1.213-.424-.238 0-.457.028-.649.076l.155.943c.216-.062.392-.071.47-.071.17 0 .395.032.588.186.115.101.216.241.27.372L-1.36 0z" style="fill:#176fc1;fill-opacity:1;fill-rule:nonzero;stroke:none" transform="translate(270.742 44.073)"/><path d="m0 0-.162-.974h-1.26l-.709-4.327h-1.238l.713 4.327h-1.26l.162.974Z" style="fill:#176fc1;fill-opacity:1;fill-rule:nonzero;stroke:none" transform="translate(277.695 44.073)"/></g></svg>