<?xml version="1.0" encoding="UTF-8"?> <svg xmlns="http://www.w3.org/2000/svg" width="44" height="44" viewBox="0 0 44 44" fill="none"><path fill-rule="evenodd" clip-rule="evenodd" d="M43.9984 44V35.3797L25.1832 0H0V44" fill="#010101"></path><path fill-rule="evenodd" clip-rule="evenodd" d="M21.3469 23.5217C23.0337 21.4559 24.5262 18.7552 24.5262 13.5242C24.5262 8.29333 23.4206 5.55942 22.0924 3.60257C20.6804 1.52252 18.7456 0.323769 15.7859 0.323769H0.195801V43.722H9.7479V26.6426H11.8043L16.6135 43.722H24.4725L24.4488 32.033L21.3469 23.5233V23.5217ZM14.2886 14.6867C14.2886 16.1081 13.1373 17.2595 11.7206 17.2595H9.79055V10.7998H11.7206C13.1373 10.7998 14.2886 11.9512 14.2886 13.371V14.6867Z" fill="#FFF4E2"></path><path d="M4.33579 34.6343V33.1733C4.33421 32.6285 4.37054 32.2573 4.44635 32.0615C4.61692 31.6635 4.88384 31.4645 5.25025 31.4645C5.52033 31.4645 5.74144 31.5592 5.9136 31.7503C6.08733 31.9414 6.2042 32.202 6.26422 32.5321L6.73961 32.1862L7.32398 31.7298L7.8436 31.3176L8.19264 31.0491L8.16579 31.6729C8.17369 31.7645 8.18001 31.8704 8.18475 31.9888C8.19106 32.1088 8.19264 32.2099 8.19264 32.292L7.01127 33.1086L6.69223 33.3376L6.38741 33.5587V33.6061L8.19264 33.6029L8.16579 34.1194C8.17369 34.1936 8.18001 34.2789 8.18475 34.3768C8.19106 34.4748 8.19264 34.56 8.19264 34.6311L4.33105 34.6374L4.33579 34.6343ZM6.14892 33.6029L6.15366 33.4324C6.15366 32.8275 5.88201 32.5258 5.34186 32.5258C5.30237 32.5258 5.25657 32.529 5.20603 32.5368C5.15549 32.5447 5.10653 32.5526 5.05915 32.5637C4.88542 32.6 4.7717 32.6901 4.718 32.8338C4.6643 32.9775 4.63903 33.167 4.63903 33.4024V33.6061L6.14892 33.6029Z" fill="#152127"></path><path d="M8.18869 27.4181L8.16184 27.8808C8.16184 27.9487 8.17131 28.1067 8.18869 28.3499H7.78594C7.94546 28.5394 8.06076 28.7084 8.13341 28.8569C8.20448 29.0053 8.24081 29.1933 8.24081 29.4191C8.24081 29.6071 8.21238 29.784 8.15552 29.9514C8.09866 30.1188 8.0118 30.2546 7.89808 30.3573C7.76225 30.4789 7.54746 30.5389 7.25527 30.5405H7.04521L5.52111 30.5437L5.54796 30.0604C5.54796 29.9925 5.53848 29.8314 5.52111 29.5771L7.04048 29.5739C7.25685 29.5739 7.41005 29.5471 7.49692 29.4934C7.68644 29.3955 7.78121 29.2296 7.78121 28.9959C7.78121 28.8079 7.74014 28.6705 7.65801 28.5821C7.57589 28.4936 7.47954 28.4384 7.36741 28.4178C7.25527 28.3973 7.11787 28.3878 6.95519 28.3878L5.51953 28.391L5.54638 27.9045C5.54638 27.8413 5.5369 27.6802 5.51953 27.4212L8.18869 27.4165V27.4181Z" fill="#152127"></path><path d="M8.18766 25.327L8.16082 25.8292C8.16871 25.9034 8.17503 25.9887 8.17977 26.0851C8.18451 26.1814 8.18766 26.2651 8.18766 26.3346L4.41136 26.3409L4.4082 23.7808L4.64511 23.8123C4.67986 23.8123 4.75725 23.8013 4.88202 23.7792C4.86938 23.9024 4.85675 24.0271 4.84411 24.1551C4.83148 24.283 4.82516 24.3983 4.82516 24.501C4.82516 24.5878 4.822 24.7284 4.81568 24.9226C4.80937 25.1169 4.80621 25.2527 4.80621 25.3317H5.98916V24.6178C5.98916 24.3983 5.97179 24.1282 5.93704 23.8044C6.05234 23.8266 6.13131 23.836 6.17395 23.836C6.21817 23.836 6.29872 23.825 6.41244 23.8029C6.39665 24.0113 6.38401 24.1819 6.37611 24.3162C6.36664 24.4504 6.36348 24.5531 6.36348 24.6226V25.3285L8.18608 25.3254L8.18766 25.327Z" fill="#152127"></path><path d="M4.07129 22.4256C4.07129 22.2867 4.11393 22.1635 4.2008 22.0576C4.28766 21.9518 4.38874 21.8981 4.50562 21.8981C4.62407 21.8981 4.72673 21.9502 4.81202 22.0561C4.89888 22.1619 4.94153 22.2851 4.94153 22.4241C4.94153 22.563 4.89731 22.6831 4.81044 22.7857C4.72199 22.8884 4.62091 22.9389 4.5072 22.9389C4.43139 22.9389 4.36032 22.9168 4.29398 22.871C4.22607 22.8252 4.17237 22.762 4.13288 22.6815C4.09182 22.601 4.07287 22.5157 4.07129 22.4256ZM5.51484 22.8694L5.54169 22.4162C5.54169 22.3514 5.53222 22.2014 5.51484 21.9629L8.184 21.9581L8.15715 22.4114C8.15715 22.4762 8.16663 22.6262 8.184 22.8647L5.51484 22.8694Z" fill="#152127"></path><path d="M8.18123 20.0297L8.15438 20.483C8.15438 20.5478 8.16385 20.6978 8.18123 20.9363L3.99902 20.9442L4.02587 20.4909C4.02587 20.4261 4.0164 20.2761 3.99902 20.0376L8.18123 20.0297Z" fill="#152127"></path><path d="M5.51194 19.15L5.53879 18.6683C5.53879 18.6004 5.52931 18.4393 5.51194 18.1866H5.92258C5.78991 18.0839 5.67935 17.9355 5.59091 17.7412C5.50246 17.5469 5.45824 17.3527 5.45824 17.16C5.45824 16.9373 5.50088 16.7446 5.58617 16.5835C5.67145 16.4224 5.79622 16.304 5.9589 16.2281C5.62407 15.947 5.45508 15.5932 5.45508 15.1684C5.45508 14.9062 5.49298 14.6946 5.57195 14.5319C5.64934 14.3692 5.7599 14.2523 5.90046 14.1813C5.96996 14.1465 6.04893 14.1212 6.13421 14.1023C6.2195 14.0833 6.31584 14.0739 6.4185 14.0739L8.17319 14.0707L8.14634 14.5556C8.14634 14.6188 8.15582 14.7799 8.17319 15.0357L6.68068 15.0389C6.44219 15.0389 6.25582 15.072 6.11842 15.1368C5.98259 15.2015 5.91468 15.339 5.91468 15.549C5.91468 15.7764 5.96364 15.9296 6.06314 16.0086C6.16106 16.0876 6.30952 16.1271 6.50379 16.1271L8.17319 16.1239L8.14634 16.6088C8.14634 16.672 8.15582 16.833 8.17319 17.0905L6.68068 17.0936C6.44851 17.0936 6.26214 17.1268 6.12316 17.1931C5.98417 17.2595 5.91468 17.3969 5.91468 17.6069C5.91468 17.9939 6.13263 18.1866 6.56538 18.185L8.17319 18.1818L8.14634 18.6636C8.14634 18.7315 8.15582 18.8926 8.17319 19.1453L5.50404 19.15H5.51194Z" fill="#152127"></path><path d="M7.58069 13.1278C7.72283 13.0662 7.83654 12.9651 7.92341 12.823C8.01028 12.6809 8.0545 12.5182 8.05292 12.335C8.05292 12.2055 8.01975 12.0838 7.95342 11.9701C7.88709 11.8564 7.80654 11.7996 7.71177 11.7996C7.59964 11.7996 7.51909 11.8501 7.47013 11.9528C7.42906 12.0428 7.35799 12.237 7.25849 12.5324C7.15899 12.8277 7.04843 13.0488 6.9284 13.1926C6.80837 13.3363 6.63779 13.4089 6.42142 13.4089C6.23979 13.4089 6.08185 13.3552 5.94602 13.2447C5.8102 13.1357 5.70754 12.9904 5.63804 12.8088C5.56855 12.6272 5.53223 12.4297 5.53223 12.2149C5.53223 11.8232 5.61909 11.4868 5.79598 11.2057C5.87969 11.2373 5.96182 11.2673 6.04237 11.2942C6.12292 11.321 6.20504 11.3479 6.28559 11.3715V11.569C6.1624 11.5958 6.05342 11.6748 5.95866 11.8027C5.8639 11.9306 5.81809 12.0728 5.81809 12.2291C5.81809 12.3697 5.84494 12.4913 5.90022 12.5924C5.9555 12.6951 6.03605 12.7456 6.14345 12.7456C6.25716 12.7456 6.35193 12.6445 6.42774 12.4424C6.50355 12.2402 6.57146 12.0412 6.63148 11.8454C6.69149 11.6495 6.78468 11.4774 6.90945 11.3289C7.03422 11.1804 7.21269 11.1062 7.44644 11.1046C7.61701 11.1046 7.77021 11.1583 7.90762 11.2657C8.04344 11.3731 8.15084 11.5263 8.22665 11.7269C8.30246 11.9275 8.34195 12.1676 8.34195 12.4487C8.34195 12.8119 8.26614 13.131 8.11136 13.4074C7.92973 13.3663 7.75284 13.3331 7.58226 13.3063V13.1294L7.58069 13.1278Z" fill="#152127"></path><path d="M29.6825 35.514L29.4314 36.141C29.4187 36.1742 29.3903 36.2547 29.3445 36.3795C29.3129 36.4695 29.2798 36.5595 29.2482 36.648C29.1866 36.8233 29.1313 37.0081 29.0792 37.2023L28.9434 37.1929L28.8059 37.1834H28.7286C28.7001 37.1881 28.678 37.1913 28.6638 37.1929L28.5264 37.2023L27.9231 35.514C27.8583 35.8172 27.8015 36.111 27.7509 36.3937C27.7004 36.6764 27.6562 36.9449 27.6167 37.2023L27.4192 37.1929L27.2266 37.2023L27.4651 36.3432L27.6562 35.6387L27.8583 34.8159H27.931L27.9989 34.8254L28.0715 34.8317L28.1268 34.8348L28.1805 34.8317L28.25 34.8254L28.3148 34.8159H28.3874L28.986 36.4411C29.0239 36.321 29.0634 36.2105 29.1013 36.1126L29.2719 35.683L29.4598 35.1949C29.5056 35.0733 29.5498 34.9454 29.5925 34.8143H29.6651L29.7346 34.8238L29.8073 34.8301L29.8657 34.8333L29.9241 34.8301L29.9936 34.8238L30.0584 34.8143H30.131L30.2463 35.3987C30.2937 35.6309 30.3379 35.8378 30.3822 36.0225C30.4264 36.2073 30.4754 36.4032 30.5322 36.6101C30.5891 36.817 30.6475 37.0144 30.7059 37.2008L30.5243 37.1913L30.3427 37.1818L30.1563 37.1913L29.9778 37.2008L29.6809 35.5124L29.6825 35.514Z" fill="#FFF4E2"></path><path d="M31.7072 36.0115C31.7072 36.2942 31.7688 36.5185 31.892 36.6827C32.0152 36.847 32.1984 36.9307 32.4432 36.9307C32.5411 36.9307 32.6438 36.9102 32.748 36.8691C32.8522 36.828 32.9439 36.7743 33.0212 36.708L33.0749 36.7538L32.9707 37.0286C32.8744 37.0949 32.7606 37.1486 32.6311 37.1897C32.5016 37.2308 32.3784 37.2529 32.2631 37.2529C32.061 37.2529 31.8794 37.2229 31.7198 37.1629C31.6377 37.1328 31.5635 37.0965 31.4971 37.0539C31.4308 37.0112 31.3692 36.9623 31.3124 36.9038C31.2018 36.7917 31.1181 36.6543 31.0597 36.4932C31.0028 36.3321 30.9744 36.152 30.9744 35.9499C30.9744 35.7793 31.0012 35.6214 31.0533 35.4729C31.1055 35.3245 31.1828 35.1997 31.2839 35.0939C31.385 34.988 31.5066 34.9075 31.6488 34.8491C31.7909 34.7906 31.952 34.7622 32.1289 34.7622C32.8207 34.7622 33.1665 35.1776 33.1665 36.0067H31.704L31.7072 36.0115ZM32.489 35.7746C32.489 35.5835 32.4621 35.4034 32.4084 35.236C32.3547 35.0686 32.2647 34.9833 32.1368 34.9833C31.9804 34.9833 31.873 35.0639 31.8114 35.2265C31.7798 35.315 31.7546 35.4034 31.7356 35.4934C31.7167 35.5835 31.7072 35.6767 31.7072 35.7746H32.489Z" fill="#FFF4E2"></path><path d="M33.4904 36.8959L33.582 36.6843L33.6547 36.5106L33.8521 36.0257L34.0116 35.6277L34.1585 35.2392C34.168 35.2123 34.1917 35.1444 34.228 35.037C34.2549 34.9549 34.2801 34.8822 34.3007 34.8175H34.3702C34.3954 34.8222 34.416 34.8254 34.4286 34.827L34.5534 34.8364L34.6781 34.827L34.8029 34.8175C34.9419 35.2202 35.0777 35.6056 35.2104 35.9736C35.3446 36.3416 35.4584 36.6496 35.5531 36.8975H35.8058C35.79 36.9449 35.7821 37.0144 35.7821 37.1092C35.7821 37.185 35.79 37.2576 35.8058 37.3287H35.7553C35.7158 37.2829 35.6542 37.2497 35.5721 37.2276C35.5357 37.2181 35.4899 37.2102 35.4347 37.2023C35.3794 37.1944 35.3257 37.1913 35.2736 37.1913C35.1772 37.1913 35.0825 37.1913 34.9877 37.1881C34.8929 37.185 34.8045 37.185 34.7192 37.1834H34.2896C34.1648 37.1834 34.059 37.1834 33.9753 37.1865C33.8916 37.1897 33.8126 37.1897 33.7368 37.1913C33.6784 37.1913 33.6294 37.1944 33.5868 37.1992C33.5441 37.2039 33.4952 37.2134 33.4399 37.2276C33.3594 37.2497 33.2946 37.2845 33.2441 37.3287H33.2014C33.2172 37.2876 33.2251 37.2134 33.2251 37.1092C33.2251 37.0618 33.2251 37.0239 33.2204 36.9907C33.2172 36.9591 33.2109 36.9275 33.2014 36.8959H33.4889H33.4904ZM34.8203 36.8959L34.3623 35.4919C34.1206 36.1442 33.9548 36.6117 33.8632 36.8959H34.8203Z" fill="#FFF4E2"></path><path d="M36.7123 36.3179C37.0108 35.942 37.3472 35.4413 37.7184 34.8175L37.8321 34.8254L37.9774 34.8333C38.0327 34.8333 38.1148 34.8285 38.2238 34.8191V37.2039L38.058 37.1944L37.8842 37.185C37.8747 37.185 37.8242 37.1881 37.7342 37.1944C37.6442 37.2008 37.581 37.2039 37.5431 37.2039V35.6814C37.1735 36.1521 36.8371 36.6606 36.5354 37.2039L36.4265 37.1944L36.2859 37.185L36.1311 37.1944L36.03 37.2039V34.8191C36.0885 34.8191 36.1437 34.8206 36.1959 34.8254C36.248 34.8301 36.3064 34.8333 36.3696 34.838C36.3838 34.838 36.4359 34.8348 36.5244 34.8285C36.6128 34.8222 36.676 34.8191 36.7123 34.8191V36.3195V36.3179Z" fill="#FFF4E2"></path><path d="M40.6354 36.7775C40.6354 36.8612 40.6528 36.9212 40.6891 36.956C40.7254 36.9875 40.7934 37.0049 40.8913 37.0049V37.1186C40.697 37.2087 40.547 37.2545 40.4427 37.2545C40.3306 37.2545 40.2311 37.2213 40.1458 37.1565C40.0605 37.0918 39.9974 37.0033 39.9579 36.8928C39.8947 37.0018 39.8062 37.0902 39.6894 37.155C39.5725 37.2197 39.4525 37.2545 39.3261 37.2545C39.1887 37.2545 39.0687 37.2292 38.9613 37.1786C38.8539 37.1281 38.7717 37.0539 38.7133 36.9544C38.6549 36.8549 38.6233 36.738 38.6233 36.6006C38.6233 36.4506 38.6549 36.3289 38.7181 36.2358C38.7812 36.1426 38.8744 36.0668 39.0008 36.0099C39.1271 35.953 39.3008 35.8962 39.5235 35.8393C39.691 35.7983 39.811 35.754 39.8852 35.7098C39.9342 35.6672 39.9579 35.6024 39.9579 35.5187C39.9579 35.405 39.9089 35.3039 39.8126 35.2155C39.7162 35.127 39.6088 35.0828 39.4888 35.0828C39.3956 35.0828 39.304 35.1018 39.2124 35.1381C39.1208 35.1744 39.0481 35.2171 38.9897 35.2644C38.9313 35.3118 38.8981 35.3529 38.8855 35.3892H38.8523L38.7875 35.097C38.8965 34.9928 39.0339 34.9107 39.1998 34.8538C39.3656 34.7969 39.533 34.7669 39.702 34.7669C39.8536 34.7669 39.9989 34.7875 40.1395 34.8301C40.2801 34.8727 40.3985 34.9438 40.4933 35.0433C40.588 35.1428 40.6354 35.2708 40.6354 35.424V36.7775ZM39.9579 35.9167L39.8126 35.9673C39.7383 35.9894 39.672 36.0146 39.6151 36.0399C39.5583 36.062 39.5109 36.0905 39.4698 36.1236C39.364 36.2057 39.3103 36.3447 39.3103 36.5406C39.3103 36.6448 39.3309 36.7364 39.3735 36.8138C39.4161 36.8912 39.4841 36.9291 39.5788 36.9291C39.6988 36.9291 39.792 36.8849 39.8584 36.7949C39.9247 36.7048 39.9579 36.5722 39.9579 36.3953V35.9151V35.9167Z" fill="#FFF4E2"></path><path d="M28.1111 39.2208V41.3198C28.0622 41.3198 28.0053 41.3166 27.9406 41.3103L27.77 41.3008H27.7005C27.6594 41.3056 27.6152 41.3103 27.571 41.3135C27.5268 41.3166 27.4794 41.3198 27.4304 41.3198V38.9349H29.1283C29.1125 38.9886 29.1046 39.0423 29.1046 39.096C29.1046 39.1608 29.1125 39.216 29.1283 39.265C28.7855 39.2366 28.4475 39.2224 28.1127 39.2224L28.1111 39.2208Z" fill="#FFF4E2"></path><path d="M29.4408 38.9333L29.5277 38.9381L29.6114 38.946L29.7014 38.9507L29.7709 38.9539L29.8404 38.9507L29.9272 38.946L30.0062 38.9381L30.0962 38.9333V39.3629C30.1531 39.2145 30.24 39.0976 30.3568 39.0123C30.4737 38.927 30.6111 38.8828 30.769 38.8828C30.9428 38.8828 31.0912 38.9144 31.216 38.9776C31.3408 39.0407 31.4419 39.1276 31.5193 39.2382C31.5966 39.3487 31.6551 39.4751 31.6898 39.6204C31.7246 39.7657 31.7435 39.9189 31.7435 40.0831C31.7435 40.3674 31.6977 40.6059 31.6077 40.7986C31.5177 40.9913 31.3961 41.1334 31.246 41.2282C31.096 41.3229 30.9333 41.3687 30.758 41.3687C30.4848 41.3687 30.2731 41.2503 30.1215 41.0118V42.5817C30.0615 42.5722 30.0015 42.5659 29.9415 42.5612C29.8814 42.5564 29.8262 42.5533 29.7788 42.5533C29.7377 42.5533 29.6856 42.5564 29.6256 42.5612C29.5656 42.5659 29.5024 42.5722 29.4392 42.5801V38.9333H29.4408ZM31.0154 40.1368C31.0154 39.5114 30.8717 39.1987 30.5858 39.1987C30.3995 39.1987 30.2731 39.2998 30.2052 39.5019C30.1373 39.7041 30.1057 39.9252 30.1057 40.1637C30.1057 40.7528 30.2557 41.0466 30.5574 41.0466C30.7122 41.0292 30.8275 40.9407 30.9017 40.7796C30.9759 40.6185 31.0154 40.4053 31.0154 40.1368Z" fill="#FFF4E2"></path><path d="M33.004 41.3056L32.0059 38.9333L32.1464 38.9428L32.2649 38.9507L32.3833 38.9539L32.4607 38.9507L32.5618 38.946L32.6566 38.9381L32.7576 38.9333C32.8082 39.0739 32.865 39.2287 32.9314 39.4008C32.9882 39.5509 33.053 39.7199 33.1288 39.9094C33.2204 40.1416 33.2946 40.3264 33.3515 40.4638L33.5379 39.9584L33.7069 39.5098C33.8016 39.2539 33.8711 39.0613 33.9138 38.9318L34.1159 38.9412L34.3181 38.9318L33.819 40.0579C33.3941 41.0244 33.0514 41.8662 32.7908 42.5801C32.7434 42.5691 32.6755 42.5643 32.5839 42.5643C32.4923 42.5643 32.4228 42.5691 32.377 42.5801L33.004 41.304V41.3056Z" fill="#FFF4E2"></path><path d="M36.8512 38.9333V41.3182L36.6854 41.3087L36.5117 41.2992C36.5022 41.2992 36.4516 41.3024 36.3616 41.3087C36.2716 41.315 36.2084 41.3182 36.1705 41.3182V39.2145H35.3413V41.3182L35.1676 41.3087L34.9986 41.2992C34.9891 41.2992 34.9386 41.3024 34.8486 41.3087C34.7586 41.315 34.6954 41.3182 34.6575 41.3182V38.9333H36.8497H36.8512Z" fill="#FFF4E2"></path><path d="M39.5978 38.9333V41.3182L39.432 41.3087L39.2582 41.2992C39.2488 41.2992 39.1982 41.3024 39.1082 41.3087C39.0182 41.315 38.955 41.3182 38.9171 41.3182V39.2145H38.0879V41.3182L37.9142 41.3087L37.7452 41.2992C37.7357 41.2992 37.6852 41.3024 37.5952 41.3087C37.5051 41.315 37.442 41.3182 37.4041 41.3182V38.9333H39.5962H39.5978Z" fill="#FFF4E2"></path><path d="M42.0097 40.8949C42.0097 40.9786 42.0271 41.0387 42.0634 41.0734C42.0997 41.105 42.1676 41.1224 42.2656 41.1224V41.2361C42.0713 41.3261 41.9212 41.3719 41.817 41.3719C41.7049 41.3719 41.6054 41.3387 41.5201 41.274C41.4348 41.2092 41.3716 41.1208 41.3321 41.0102C41.269 41.1192 41.1805 41.2076 41.0636 41.2724C40.9468 41.3372 40.8267 41.3719 40.7004 41.3719C40.563 41.3719 40.4429 41.3466 40.3355 41.2961C40.2282 41.2456 40.146 41.1713 40.0876 41.0718C40.0291 40.9723 39.9976 40.8554 39.9976 40.718C39.9976 40.568 40.0291 40.4464 40.0923 40.3532C40.1555 40.26 40.2487 40.1842 40.375 40.1273C40.5014 40.0705 40.6751 40.0136 40.8978 39.9568C41.0652 39.9157 41.1853 39.8715 41.2595 39.8273C41.3084 39.7846 41.3321 39.7199 41.3321 39.6362C41.3321 39.5224 41.2832 39.4214 41.1868 39.3329C41.0905 39.2445 40.9831 39.2003 40.8631 39.2003C40.7699 39.2003 40.6783 39.2192 40.5867 39.2555C40.4951 39.2919 40.4224 39.3345 40.364 39.3819C40.3055 39.4293 40.2724 39.4703 40.2597 39.5067H40.2266L40.1618 39.2145C40.2708 39.1102 40.4082 39.0281 40.574 38.9712C40.7399 38.9144 40.9073 38.8844 41.0763 38.8844C41.2279 38.8844 41.3732 38.9049 41.5138 38.9476C41.6543 38.9902 41.7728 39.0613 41.8675 39.1608C41.9623 39.2603 42.0097 39.3882 42.0097 39.5414V40.8949ZM41.3321 40.0342L41.1868 40.0847C41.1126 40.1068 41.0463 40.1321 40.9894 40.1574C40.9326 40.1795 40.8852 40.2079 40.8441 40.2411C40.7383 40.3232 40.6846 40.4622 40.6846 40.658C40.6846 40.7623 40.7051 40.8539 40.7478 40.9313C40.7904 41.0086 40.8583 41.0466 40.9531 41.0466C41.0731 41.0466 41.1663 41.0023 41.2326 40.9123C41.299 40.8223 41.3321 40.6896 41.3321 40.5127V40.0326V40.0342Z" fill="#FFF4E2"></path></svg> 