<svg xmlns="http://www.w3.org/2000/svg" viewBox="0 0 260 76"><path fill="#404041" d="M86.05 45.67c-1.54 0-2.76-.63-3.4-1.96-.83-1.83-.54-4.67 1.31-5.77 1.87-1.14 5.11-.49 5.39 2.04h-1.38c-.31-1.36-2.35-1.56-3.31-.85-.74.55-.99 1.47-.99 2.38 0 .92.27 1.89 1.03 2.44.96.71 2.99.52 3.33-.83h1.45c-.25 1.68-1.81 2.59-3.43 2.56Zm6.39-.01c-1.04.02-2.12-.66-2.08-1.8-.05-1.08.76-1.67 1.74-1.79.6-.11 1.6-.07 2.22-.07 0-.48-.12-.9-.52-1.15-.52-.3-1.59-.25-1.83.42h-1.43c.34-2.16 4.11-2.47 4.85-.47.44.87.21 3.72.26 4.79h-1.23l-.03-.73c-.47.62-1.23.81-1.96.81Zm.32-1.14c.91.03 1.68-.62 1.58-1.55-.61.03-1.56-.07-2.14.11-.46.12-.6.73-.33 1.09.2.26.55.36.88.36Zm4.3 1.06v-6.02h1.39v2.42h2.51v-2.42h1.39v6.02h-1.39v-2.35h-2.51v2.35zm6.71 0v-6.02h1.39v2.41h.96l1.56-2.41h1.57l-1.93 2.84 2 3.18h-1.61l-1.49-2.38h-1.06v2.38zm8.04 0v-4.79h-1.98v-1.23h5.37v1.23h-2v4.79zm3.72-2.65v-1.26h3.76v1.26zm5.28 2.65V37.5h6.59v8.08h-1.43v-6.79h-3.74v6.79h-1.43Zm10.79.08c-3.09.24-3.94-4.34-1.57-5.79 2.15-1.34 4.86.67 4.26 3.15h-4.22c-.05 1.44 2.16 2.04 2.81.78h1.39c-.25 1.27-1.47 1.88-2.67 1.86m-1.51-3.68h2.9c.05-1.81-2.88-1.75-2.9 0m6.82 3.6v-4.79h-1.98v-1.23h5.37v1.23h-2v4.79zm6.87.08c-2.58.09-3.52-2.64-2.57-4.69.61-1.36 2.43-1.85 3.76-1.27 1.07.47 1.59 1.63 1.55 2.77 0 .19-.02.36-.05.55h-4.22c.05.51.27.99.71 1.26.59.34 1.81.28 2.09-.48h1.39c-.25 1.27-1.47 1.88-2.67 1.86Zm-1.5-3.68h2.9c0-1.83-2.83-1.76-2.9 0m5.41 5.81v-8.24h1.3l.07.82c.73-1.05 2.44-1.17 3.4-.5.85.6 1.15 1.64 1.15 2.7 0 1.07-.31 2.09-1.18 2.68-.89.61-2.58.57-3.35-.31v2.86h-1.39Zm3.01-3.39c1.46.08 1.78-1.65 1.39-2.73-.4-1.28-2.38-1.25-2.83-.01-.5 1.12 0 2.82 1.45 2.74Zm6.8 1.26c-1.98.07-3.01-1.74-2.95-3.53-.01-1.82.13-3.95 2.22-4.41 1.05-.31 2.27-.34 3.33-.56v1.38c-.76.2-1.56.18-2.34.29-.6.07-1.2.19-1.56.71-.26.37-.37.89-.38 1.35.71-1.07 2.43-1.21 3.42-.6 1.26.77 1.45 2.72.81 3.95-.51.95-1.44 1.43-2.55 1.42m.01-1.24c1.98.06 2.04-3.3.02-3.23-2.01-.05-2.04 3.27-.02 3.23m3.98 3.85v-1.39c.87.03 1.41-.29 1.76-1.06l-2.55-6.26h1.62l1.73 4.67 1.37-4.67h1.53l-1.62 5.04c-.64 2-1.35 3.87-3.83 3.68Zm6.25-.48v-8.24h1.3l.07.82c.73-1.05 2.44-1.17 3.4-.5.85.6 1.15 1.64 1.15 2.7 0 1.07-.31 2.09-1.18 2.68-.89.61-2.58.57-3.35-.31v2.86h-1.39Zm3.02-3.39c1.46.08 1.78-1.65 1.39-2.73-.4-1.28-2.38-1.25-2.83-.01-.5 1.12 0 2.82 1.45 2.74Zm4.06 1.18v-6.02h4.27v1.23h-2.87v4.79h-1.39Zm7.75.08c-1.15 0-2.06-.46-2.54-1.46-.64-1.38-.4-3.51 1.01-4.33 1.5-.88 3.99-.34 4.15 1.69h-1.37c-.22-.92-1.5-1.05-2.12-.55-.46.38-.63 1-.63 1.58 0 .59.18 1.21.66 1.57.61.45 1.92.33 2.1-.57h1.41c-.12 1.38-1.4 2.1-2.68 2.08Zm3.77-.08v-6.02h1.39v2.41h.96l1.56-2.41h1.57l-1.93 2.84 2 3.18h-1.61l-1.49-2.38h-1.06v2.38zm6.38 0v-6.02h1.39v3.92c.13-.25 2.71-3.59 2.94-3.92h1.23v6.02h-1.38v-3.87c-.16.28-2.67 3.52-2.92 3.87h-1.27Zm6.99 0v-6.02h1.39v3.92c.08-.15.26-.39.37-.51l2.58-3.4h1.23v6.02h-1.38v-3.87c-.11.19-.25.36-.38.53l-2.54 3.35h-1.27Zm2.87-6.64c-1.21 0-2.08-.54-2.09-1.79h1.19c0 .58.38.78.91.79.53 0 .9-.21.91-.79h1.19c.02 1.2-.97 1.84-2.11 1.79M82.98 56.37v-6.02h5.3v6.02h-1.39v-4.79h-2.52v4.79zm9.45.08c-2.6.09-3.6-2.64-2.62-4.72.94-1.96 4.28-1.98 5.21.01.96 2.07.02 4.8-2.59 4.71m-.02-1.27c1.44.08 1.86-1.61 1.43-2.71-.39-1.25-2.47-1.25-2.86 0-.44 1.11-.02 2.79 1.44 2.71Zm3.53 1.2v-1.26c.92-.02.99-1.15 1.05-1.87.06-.94.09-1.99.1-2.9h4.52v6.02h-1.39v-4.79h-1.84c-.03.8-.04 1.68-.15 2.48-.07.58-.17 1.24-.52 1.72-.47.56-.99.57-1.77.59Zm8.36-.01c.25-.35 2.76-3.59 2.92-3.87v3.87h1.38v-6.02h-1.23c-.23.33-2.81 3.66-2.94 3.92v-3.92h-1.39v6.02h1.27Zm7.13 0v-4.79h-1.98v-1.23h5.37v1.23h-2v4.79zm6.87.08c-2.58.09-3.52-2.64-2.57-4.69.61-1.36 2.43-1.85 3.76-1.27 1.07.47 1.59 1.63 1.55 2.77 0 .19-.02.36-.05.55h-4.22c.05.51.27.99.71 1.26.59.34 1.81.28 2.09-.48h1.39c-.25 1.27-1.47 1.88-2.67 1.86Zm-1.51-3.68h2.9c0-1.83-2.83-1.76-2.9 0m4.57 3.6 2.12-3.07-2.01-2.95h1.62l1.3 2.02 1.27-2.02h1.59l-2.01 2.98 2.16 3.04h-1.63l-1.43-2.08-1.43 2.08zm6.86 0v-6.02h1.39v2.42h2.51v-2.42h1.39v6.02h-1.39v-2.35h-2.51v2.35zm6.71 0v-6.02h1.39v3.92c.08-.15.26-.39.37-.51l2.58-3.4h1.23v6.02h-1.38v-3.87c-.11.19-.25.36-.38.53l-2.54 3.35h-1.27Zm10.34 0v-2.12c-2.05.32-3.74.06-3.68-2.39v-1.51h1.39c.04 2.16-.41 3.07 2.29 2.65v-2.65h1.39v6.02zm5.48.08c-2.58.09-3.52-2.64-2.57-4.69.61-1.36 2.43-1.85 3.76-1.27 1.07.47 1.59 1.63 1.55 2.77 0 .19-.02.36-.05.55h-4.22c.05.51.27.99.71 1.26.59.34 1.81.28 2.09-.48h1.39c-.25 1.27-1.47 1.88-2.67 1.86Zm-1.5-3.68h2.9c0-1.83-2.83-1.76-2.9 0m8.01 3.68c-1.15 0-2.06-.46-2.54-1.46-.64-1.38-.4-3.51 1.01-4.33 1.5-.88 3.99-.34 4.15 1.69h-1.37c-.22-.92-1.5-1.05-2.12-.55-.46.38-.63 1-.63 1.58 0 .59.18 1.21.66 1.57.61.45 1.92.33 2.1-.57h1.41c-.12 1.38-1.4 2.1-2.68 2.08Zm3.77-.08v-6.02h1.39v2.41h.96l1.56-2.41h1.57l-1.93 2.84 2 3.18h-1.61l-1.49-2.38h-1.06v2.38zm6.37 0v-6.02h1.39v3.92c.08-.15.26-.39.37-.51l2.58-3.4h1.23v6.02h-1.38v-3.87c-.11.19-.25.36-.38.53l-2.54 3.35h-1.27Zm6.99 0v-6.02h1.39v3.92c.08-.15.26-.39.37-.51l2.58-3.4h1.23v6.02h-1.38v-3.87c-.11.19-.25.36-.38.53l-2.54 3.35h-1.27Zm2.88-6.64c-1.21 0-2.08-.54-2.09-1.79h1.19c0 .58.38.78.91.79.53 0 .9-.21.91-.79h1.19c.02 1.2-.97 1.84-2.11 1.79m7.46 9.34v-1.39c.87.03 1.41-.29 1.76-1.06l-2.55-6.26h1.62l1.73 4.67 1.37-4.67h1.53l-1.62 5.04c-.64 2-1.35 3.87-3.83 3.68Zm6.25-2.7v-6.02h1.39v2.42h2.51v-2.42h1.39v6.02h-1.39v-2.35h-2.51v2.35zm6.71 0v-6.02h1.39v3.92c.13-.25 2.71-3.59 2.94-3.92h1.23v6.02h-1.38V52.5c-.16.28-2.67 3.52-2.92 3.87h-1.27Zm7 0v-6.02h2.73c.49 0 1.06.04 1.49.27.95.43.97 2.04.01 2.51 1.28.3 1.28 2.21.28 2.82-.43.29-.99.42-1.51.42zm1.4-3.55c.5-.02 1.29.07 1.77-.12.44-.13.61-.69.28-.99-.23-.18-.58-.19-.86-.19h-1.19zm0 2.34h1.43c.46 0 1.04-.11 1.03-.67.02-.66-.72-.69-1.21-.69h-1.24v1.36Zm7.62 1.29c-2.58.09-3.52-2.64-2.57-4.69.61-1.36 2.43-1.85 3.76-1.27 1.07.47 1.59 1.63 1.55 2.77 0 .19-.02.36-.05.55h-4.22c.05.51.27.99.71 1.26.59.34 1.81.28 2.09-.48h1.39c-.25 1.27-1.47 1.88-2.67 1.86Zm-1.51-3.68h2.9c0-1.83-2.83-1.76-2.9 0m5.41 5.82v-8.24h1.3l.07.82c.73-1.05 2.44-1.17 3.4-.5.85.6 1.15 1.64 1.15 2.7 0 1.07-.31 2.09-1.18 2.68-.89.61-2.58.57-3.35-.31v2.86h-1.39Zm3.01-3.4c1.46.08 1.78-1.65 1.39-2.73-.4-1.28-2.38-1.25-2.83-.01-.5 1.12 0 2.82 1.45 2.74Zm6.65 1.26c-1.15 0-2.06-.46-2.54-1.46-.64-1.38-.4-3.51 1.01-4.33 1.5-.88 3.99-.34 4.15 1.69h-1.37c-.22-.92-1.5-1.05-2.12-.55-.46.38-.63 1-.63 1.58 0 .59.18 1.21.66 1.57.61.45 1.92.33 2.1-.57h1.41c-.12 1.38-1.4 2.1-2.68 2.08Zm3.77-.08v-6.02h1.39v3.92c.13-.25 2.71-3.59 2.94-3.92h1.23v6.02h-1.38V52.5c-.16.28-2.67 3.52-2.92 3.87h-1.27Zm8.39 0v-4.79h-1.98v-1.23h5.37v1.23h-2v4.79zm6.87.08c-2.58.09-3.52-2.64-2.57-4.69.61-1.36 2.43-1.85 3.76-1.27 1.07.47 1.59 1.63 1.55 2.77 0 .19-.02.36-.05.55h-4.22c.05.51.27.99.71 1.26.59.34 1.81.28 2.09-.48h1.39c-.25 1.27-1.47 1.88-2.67 1.86Zm-1.5-3.68h2.9c0-1.83-2.83-1.76-2.9 0m6.81 3.6v-4.79h-1.98v-1.23H255v1.23h-2v4.79zM82.98 67.49v-8.08h6.59v8.08h-1.43V60.7H84.4v6.79h-1.43Zm10.78.08c-2.58.09-3.52-2.64-2.57-4.69.61-1.36 2.43-1.85 3.76-1.27 1.07.47 1.59 1.63 1.55 2.77 0 .19-.02.36-.05.55h-4.22c.05.51.27.99.71 1.26.59.34 1.81.28 2.09-.48h1.39c-.25 1.27-1.47 1.88-2.67 1.86Zm-1.5-3.68h2.9c0-1.83-2.83-1.76-2.9 0m6.81 3.6V62.7h-1.98v-1.23h5.37v1.23h-2v4.79zm4.23 2.21v-8.24h1.3l.07.82c.73-1.05 2.44-1.17 3.4-.5.85.6 1.15 1.64 1.15 2.7 0 1.07-.31 2.09-1.18 2.68-.89.61-2.58.57-3.35-.31v2.86h-1.39Zm3.01-3.39c1.46.08 1.78-1.65 1.39-2.73-.4-1.28-2.38-1.25-2.83-.01-.5 1.12 0 2.82 1.45 2.74Zm5.84 1.26c-1.04.02-2.12-.66-2.08-1.8-.05-1.08.76-1.67 1.74-1.79.6-.11 1.6-.07 2.22-.07 0-.48-.12-.9-.52-1.15-.52-.3-1.59-.25-1.83.42h-1.43c.34-2.16 4.11-2.47 4.85-.47.44.87.21 3.72.26 4.79h-1.23l-.03-.73c-.47.62-1.23.81-1.96.81Zm.32-1.13c.91.03 1.68-.62 1.58-1.55-.61.03-1.56-.07-2.14.11-.46.12-.6.73-.33 1.09.2.26.55.36.88.36Zm7.61 1.05v-8.08h3.31c.66 0 1.33.07 1.85.43 1.06.73.99 2.77-.26 3.31 1.71.35 1.81 3.06.41 3.84-.66.39-1.47.48-2.26.49h-3.04Zm1.43-4.7c.45-.02 1.73.05 2.14-.07.35-.09.64-.25.81-.55.17-.28.15-.89-.06-1.11-.28-.31-.74-.34-1.17-.35h-1.72zm0 3.39h1.7c.74 0 1.77-.17 1.72-1.12.05-.84-.78-1.1-1.47-1.07h-1.95zm8.67 1.39c-2.58.09-3.52-2.64-2.57-4.69.61-1.36 2.43-1.85 3.76-1.27 1.07.47 1.59 1.63 1.55 2.77 0 .19-.02.36-.05.55h-4.22c.05.51.27.99.71 1.26.59.34 1.81.28 2.09-.48h1.39c-.25 1.27-1.47 1.88-2.67 1.86Zm-1.51-3.68h2.9c0-1.83-2.83-1.76-2.9 0m4.9 3.61v-1.26c.92-.02.99-1.15 1.05-1.87.06-.94.09-1.99.1-2.9h4.52v6.02h-1.39V62.7h-1.84c-.03.8-.04 1.68-.15 2.48-.07.58-.17 1.24-.52 1.72-.47.56-.99.57-1.77.59Zm7.09-.01v-6.02h1.39v3.92c.08-.15.26-.39.37-.51l2.58-3.4h1.23v6.02h-1.38v-3.87c-.11.19-.25.36-.38.53l-2.54 3.35h-1.27Zm6.99 0v-6.02h1.39v2.41h.96l1.56-2.41h1.57l-1.93 2.84 2 3.18h-1.61l-1.49-2.38h-1.06v2.38zm8.88.08c-2.6.09-3.6-2.64-2.62-4.72.94-1.96 4.28-1.98 5.21.01.96 2.07.02 4.8-2.59 4.71m-.01-1.27c1.44.08 1.86-1.61 1.43-2.71-.39-1.25-2.47-1.25-2.86 0-.44 1.11-.02 2.79 1.44 2.71Zm4.11 1.19v-6.02h4.27v1.23h-2.87v4.79h-1.39Zm7.86.08c-2.6.09-3.6-2.64-2.62-4.72.94-1.96 4.28-1.98 5.21.01.96 2.07.02 4.8-2.59 4.71m-.01-1.27c1.44.08 1.86-1.61 1.43-2.71-.39-1.25-2.47-1.25-2.86 0-.44 1.11-.02 2.79 1.44 2.71ZM82.94 30.34V6.25l21.05-.05v24.09h-4.86v-19.6l-11.34.05v19.6h-4.86Zm46.54-18.5c-2.06-3.92-5.84-5.86-10.39-5.84-4.6-.03-8.45 1.89-10.53 5.86-.97 1.86-1.45 4.01-1.46 6.46-.15 7.06 4.6 12.45 11.82 12.31 7.25.19 12.08-5.28 11.98-12.35 0-2.45-.47-4.6-1.43-6.44Zm-5.34 12.04c-2.54 2.73-7.09 2.92-9.86.42-3.38-2.77-3.51-8.8-.25-11.72 1.38-1.36 3.38-2.13 5.36-2 6.59.4 9.19 8.8 4.75 13.31Zm7.36 6.56v-4.56c4.8.06 3.55-6.52 3.77-9.63l.1-10 17.39-.05v24.09h-4.89V10.72l-7.92.05c-.04 2.96-.07 7.86-.19 10.67.01 5.15-1.93 9.09-8.27 9Zm25.13-.09V6.26h4.86v14.98l11.44-14.93 4.72-.05v24.09h-4.86v-15.7l-12.02 15.7zm31.13-.03V10.76h-8.06V6.23h21.04v4.53h-8.09v19.56zm15.16 0V6.24h17.32v4.53h-12.47v5.44h11.62v4.35h-11.62v5.27h12.47v4.49zm18.81-.05 7.79-11.99-7.73-12.1h5.88l4.98 8.03 4.9-7.98h5.77l-7.79 12.01 7.79 12.03h-5.88l-5-8.44-5.18 8.44h-5.54Z"/><path fill="#3aa935" d="M5 6.12V70h63.91V6.12zm48.64 20.15c-.4.12-1.64.36-1.64.36l-.06 24.5 7.1.02-.02 7.48-15.36-.04.07-31.68-12.99-.03L30.66 45c0 1.4-.21 2.78-.6 4.11a14.57 14.57 0 0 1-7.49 8.92c-1.15.59-2.39.99-3.67 1.25-1.38.26-2.81.34-4.27.19l.02-7.58c2.99.33 5.97-1.32 7.21-4.06.35-.67.71-1.54.69-2.86V26.66c-3.1.69-5.37 3.22-6.81 5.78l-6.77-3.86c.75-1.4 2.1-3.61 3.02-4.66 2.15-2.47 4.85-4.14 7.07-4.72.8-.21 2.48-.53 3.88-.53 5.98 0 26.39-.04 26.39-.04 3.34 0 6.34-1.75 7.96-4.64l6.63 3.87c-2.09 4.15-5.82 7.2-10.3 8.41Z"/></svg>