<svg xmlns="http://www.w3.org/2000/svg" width="378" height="260" viewBox="0 0 378 260"><style>.s0{opacity:.98;fill:#761ebf}</style><g id="Background"><path id="Path 0" d="M148 62.5V122h24l.5-69.32 19.15 68.82 28.35.5V3h-24.03l-.47 67.5-19-67.53L148 3z" class="s0"/><path id="Path 1" fill-rule="evenodd" d="M102.48 3c17.35 0 17.52.02 18.03 2.25.29 1.24 5.23 27.45 11 58.25 5.76 30.8 10.48 56.56 10.48 57.25.01.94-3.35 1.25-13.49 1.25-13.2 0-13.51-.05-13.96-2.25-.25-1.24-1.04-6.08-3.04-19.25L91 100l-1.03 8.25c-.57 4.54-1.25 9.49-1.97 13.75H75.5c-10.44 0-12.5-.25-12.5-1.5 0-.83 4.73-27.04 10.52-58.25s10.73-57.31 10.98-58C84.84 3.31 89.36 3 102.48 3M98 53.5c-1.66 11.55-3.01 21.79-3.01 22.75.01 1.49.99 1.75 6.51 1.75 4.53 0 6.5-.38 6.51-1.25 0-.69-1.37-10.92-3.05-22.75s-3.22-21.95-3.43-22.5q-.37-1-.44 0c-.04.55-1.43 10.45-3.09 22" class="s0"/><path id="Path 2" d="M1.03 4.22c-.01.71 5.26 17.48 11.72 37.28l11.75 36 1 44h26l.57-42C70.65 22.15 75.93 4.92 75.79 4.22c-.19-.98-3.31-1.21-13.23-1l-12.98.28c-8.12 32.55-10.53 41.55-10.6 41-.06-.55-2.22-10-4.8-21l-4.68-20c-25.23-.49-28.45-.27-28.47.72" class="s0"/><path id="Path 3" fill-rule="evenodd" d="M339.5 1.07c3.33-.06 8.41.68 11.42 1.66 3.1 1.01 7.34 3.48 9.91 5.77 2.47 2.2 5.48 5.58 6.69 7.5 1.21 1.93 3.34 6.65 4.74 10.5s3.09 10.83 3.77 15.5c.81 5.53 1.06 14.61.71 26-.41 13.9-.97 19.04-2.7 25-1.21 4.13-3.62 10.15-5.36 13.38-1.75 3.24-4.98 7.54-7.18 9.57s-6.7 4.71-10 5.97c-4.81 1.82-7.39 2.19-13 1.84-3.85-.24-9.02-1.32-11.5-2.41-2.48-1.08-6.45-3.74-8.84-5.91s-5.8-6.86-7.59-10.44-4.12-10.1-5.16-14.5c-1.55-6.48-1.91-11.8-1.91-28 0-15.57.39-21.66 1.76-27.5.96-4.13 3.02-10.2 4.56-13.5 1.55-3.3 4.58-7.97 6.74-10.37 2.17-2.41 5.73-5.29 7.91-6.41s5.11-2.38 6.5-2.79c1.39-.42 5.23-.81 8.53-.86m-5.97 27.18c-.84 2.06-1.98 8.59-2.53 14.5s-.99 15.02-.97 20.25c.01 5.22.44 13.78.94 19 .51 5.22 1.51 11.26 2.23 13.4.71 2.15 2.42 4.76 3.8 5.81 2.19 1.66 2.85 1.74 5.28.6 1.67-.79 3.36-2.8 4.25-5.06.81-2.06 1.92-7.69 2.46-12.5.55-4.81.99-14.6.99-21.75s-.44-16.94-.99-21.75c-.54-4.81-1.78-10.61-2.74-12.89-.96-2.27-2.54-4.52-3.5-5-.96-.47-2.32-.86-3.03-.86-.7 0-2.03.56-2.96 1.25s-2.38 2.94-3.23 5" class="s0"/><path id="Path 4" d="M253.97 1.93c-1.39.41-4.32 1.66-6.5 2.77-2.18 1.12-5.77 4.03-7.97 6.48s-5.24 7.01-6.75 10.14c-1.51 3.12-3.42 8.49-4.25 11.93-.82 3.44-1.97 11.65-2.55 18.25-.76 8.55-.75 15.16.03 23 .6 6.05 1.81 13.92 2.68 17.5.88 3.58 2.8 9.2 4.27 12.5s4.46 7.97 6.63 10.37c2.16 2.41 5.51 5.17 7.44 6.13 1.93.97 5.3 2.07 7.5 2.44 2.3.39 6.12.15 9-.57 3.62-.91 6.18-2.45 9.25-5.56L277 113l1 9h19V54l-35.5.5L261 77h13c-.98 9.69-1.9 14.3-2.68 16.5s-2.41 5.02-3.62 6.28c-1.21 1.25-3.21 2.26-4.45 2.25-1.24-.02-3.15-.93-4.25-2.03s-2.71-4.36-3.59-7.25c-1.09-3.6-1.75-11.06-2.11-23.75-.28-10.17-.06-22.55.51-27.5.56-4.95 1.72-10.8 2.57-13 .96-2.49 2.6-4.51 4.33-5.34 2.1-1.01 3.35-1.07 5.04-.25 1.26.61 3.56 3.84 5.22 7.34 1.63 3.44 2.98 6.81 3 7.5s.48 1.48 1.03 1.75 5.73-1.3 11.5-3.5c9.62-3.67 10.45-4.19 9.94-6.25-.31-1.24-2.07-5.4-3.9-9.25-2.31-4.87-4.95-8.46-8.68-11.82-3.52-3.17-7.07-5.31-10.36-6.26-2.75-.79-7.7-1.4-11-1.34-3.3.05-7.14.43-8.53.85" class="s0"/><path id="Path 5" fill-rule="evenodd" d="m25.14 140.86 22.68.32c22.25.31 22.77.37 27.68 2.95 2.75 1.44 6.77 4.59 8.94 7 2.17 2.4 5.09 6.84 6.5 9.87 2.28 4.9 2.56 6.75 2.55 17-.02 10.45-.27 12.03-2.75 17.25-1.51 3.16-4.88 7.81-7.49 10.32-2.94 2.82-6.85 5.33-10.25 6.56-3.03 1.1-8.98 2.31-20.98 3.37l-.52 44-26.5.5zM51 194c7.7.01 10.43-.66 11.94-1.75 1.34-.96 3.03-3.22 3.75-5 .72-1.79 1.31-6.18 1.31-9.75 0-4.14-.63-7.83-1.75-10.14-.96-2-2.98-4.25-4.5-5-1.51-.75-4.55-1.36-6.75-1.36h-4z" class="s0"/><path id="Path 6" d="M99 200.5V260l53.5-.5.5-22.5h-27v-96H99z" class="s0"/><path id="Path 7" fill-rule="evenodd" d="M179.36 141h17.82c17.67 0 17.82.02 18.31 2.25.28 1.24 4.53 23.85 9.46 50.25 4.94 26.4 9.66 51.6 10.51 56s1.54 8.56 1.54 9.25c0 .95-3.28 1.19-27.46.75l-3.04-21-20.5-.5-1.03 8.25c-.57 4.54-1.25 9.49-1.97 13.75l-12.75-.25c-7.78-.15-12.7-.64-12.62-1.25.07-.55 4.99-27.21 10.93-59.25zm12.83 55.32c-1.48 10.35-2.46 19.02-2.19 19.28.28.25 3.31.44 6.75.43 5.83-.03 6.25-.18 6.18-2.28-.03-1.24-1.54-11.93-3.34-23.75-2.85-18.66-3.38-20.91-4-17-.39 2.47-1.92 12.97-3.4 23.32" class="s0"/><path id="Path 8" d="M223.02 142.25c.01.69 2.9 10.03 6.42 20.75s8.8 26.7 11.73 35.5l5.32 16 1.01 45 26.5.5.01-41.5c18.78-58.13 24.4-75.56 24.61-76.25.29-.97-2.74-1.19-13.34-1l-13.71.25c-8.02 32.55-10.4 41.66-10.46 41.25S258.98 173 256.5 162s-4.5-20.22-4.5-20.5-6.53-.5-14.5-.5c-10.94 0-14.49.31-14.48 1.25" class="s0"/></g></svg>